<?xml version="1.0" encoding="UTF-8" standalone="no"?>
<!-- Created with Inkscape (http://www.inkscape.org/) -->

<svg
   xmlns:dc="http://purl.org/dc/elements/1.1/"
   xmlns:cc="http://creativecommons.org/ns#"
   xmlns:rdf="http://www.w3.org/1999/02/22-rdf-syntax-ns#"
   xmlns:svg="http://www.w3.org/2000/svg"
   xmlns="http://www.w3.org/2000/svg"
   xmlns:sodipodi="http://sodipodi.sourceforge.net/DTD/sodipodi-0.dtd"
   xmlns:inkscape="http://www.inkscape.org/namespaces/inkscape"
   width="199.46385mm"
   height="61.153488mm"
   viewBox="0 0 706.76168 216.68559"
   id="svg2"
   version="1.1"
   inkscape:version="0.91 r13725"
   sodipodi:docname="Candoor_logo_01.svg">
  <defs
     id="defs4" />
  <sodipodi:namedview
     id="base"
     pagecolor="#ffffff"
     bordercolor="#666666"
     borderopacity="1.0"
     inkscape:pageopacity="0.0"
     inkscape:pageshadow="2"
     inkscape:zoom="0.35"
     inkscape:cx="954.09511"
     inkscape:cy="-145.94292"
     inkscape:document-units="px"
     inkscape:current-layer="layer1"
     showgrid="false"
     inkscape:window-width="1920"
     inkscape:window-height="1017"
     inkscape:window-x="3192"
     inkscape:window-y="-8"
     inkscape:window-maximized="1"
     fit-margin-top="0"
     fit-margin-left="0"
     fit-margin-right="0"
     fit-margin-bottom="0" />
  <metadata
     id="metadata7">
    <rdf:RDF>
      <cc:Work
         rdf:about="">
        <dc:format>image/svg+xml</dc:format>
        <dc:type
           rdf:resource="http://purl.org/dc/dcmitype/StillImage" />
        <dc:title></dc:title>
      </cc:Work>
    </rdf:RDF>
  </metadata>
  <g
     inkscape:label="Layer 1"
     inkscape:groupmode="layer"
     id="layer1"
     transform="translate(-29.476319,-355.44798)">
    <path
       sodipodi:nodetypes="cc"
       inkscape:connector-curvature="0"
       id="path4167-6"
       d="m 90.669779,418.65878 c -62.74168,74.55438 -87.4728704,-26.06131 0,0 z"
       style="font-style:normal;font-weight:normal;font-size:medium;line-height:125%;font-family:sans-serif;letter-spacing:0px;word-spacing:0px;display:inline;fill:#d98925;fill-opacity:1;fill-rule:evenodd;stroke:#383838;stroke-width:5.94956589;stroke-linecap:butt;stroke-linejoin:miter;stroke-miterlimit:4;stroke-dasharray:none;stroke-opacity:1" />
    <path
       sodipodi:nodetypes="cc"
       inkscape:connector-curvature="0"
       id="path4167-2-1"
       d="m 94.606809,418.13289 c -97.0936104,-8.22709 -29.18549,-86.48069 0,0 z"
       style="font-style:normal;font-weight:normal;font-size:109.89151001px;line-height:125%;font-family:sans-serif;letter-spacing:0px;word-spacing:0px;display:inline;fill:#eba3d8;fill-opacity:1;fill-rule:evenodd;stroke:#383838;stroke-width:5.94956589;stroke-linecap:butt;stroke-linejoin:miter;stroke-miterlimit:4;stroke-dasharray:none;stroke-opacity:1" />
    <path
       sodipodi:nodetypes="cc"
       inkscape:connector-curvature="0"
       id="path4167-3-7"
       d="m 94.962609,417.63705 c -48.0456,-84.77304 54.885481,-72.92649 0,0 z"
       style="font-style:normal;font-weight:normal;font-size:109.89151001px;line-height:125%;font-family:sans-serif;letter-spacing:0px;word-spacing:0px;display:inline;fill:#35d584;fill-opacity:1;fill-rule:evenodd;stroke:#383838;stroke-width:5.94956589;stroke-linecap:butt;stroke-linejoin:miter;stroke-miterlimit:4;stroke-dasharray:none;stroke-opacity:1" />
    <path
       d="m 129.43943,393.16115 q 10.55468,0 20.38638,4.62676 4.62671,2.16872 6.43401,2.16872 1.30125,0 4.19293,-0.65065 0.9398,-0.21694 2.09647,-0.21694 3.75918,0 6.57858,3.47003 6.94003,8.38593 6.94003,20.82016 0,8.74727 -6.00024,12.79575 -3.25314,2.16872 -7.3015,2.16872 -3.68688,0 -6.00023,-1.59044 -2.31334,-1.59044 -4.4821,-5.63875 -3.10857,-5.71112 -5.06046,-8.16899 -1.95188,-2.53023 -4.77127,-4.55439 -7.01234,-4.9159 -14.67531,-4.9159 -7.44609,0 -11.85591,5.42198 -4.33751,5.34961 -4.33751,14.38602 0,12.43424 6.2894,22.77196 8.53046,13.80791 24.43475,13.80791 5.85566,0 11.56672,-1.95195 5.78337,-1.95179 8.96421,-5.06047 2.7471,-2.60244 4.48212,-2.60244 2.53022,0 4.33751,2.38566 1.80732,2.3133 1.80732,5.63876 0,4.19288 -2.53023,9.39792 -2.53022,5.20504 -6.07254,8.16898 -1.51814,1.22894 -6.2894,2.16873 -2.74709,0.50608 -7.3015,2.67481 -10.69922,5.13283 -22.26599,5.13283 -12.07276,0 -24.07324,-5.42198 -13.952371,-6.2894 -22.049081,-19.30192 -7.95213,-12.65117 -7.95213,-26.45892 0,-16.04884 9.97631,-29.27829 8.67505,-11.49445 22.627411,-17.56691 10.62693,-4.62676 21.90449,-4.62676 z"
       style="font-style:normal;font-variant:normal;font-weight:normal;font-stretch:normal;font-size:137.36439514px;line-height:125%;font-family:'Cooper Black';-inkscape-font-specification:'Cooper Black, ';letter-spacing:0px;word-spacing:0px;display:inline;fill:#72f1ec;fill-opacity:1;stroke:#383838;stroke-width:5.94956589;stroke-linecap:butt;stroke-linejoin:miter;stroke-miterlimit:4;stroke-dasharray:none;stroke-opacity:1"
       id="path4145-1"
       inkscape:connector-curvature="0" />
    <path
       style="color:#000000;font-style:normal;font-variant:normal;font-weight:normal;font-stretch:normal;font-size:medium;line-height:125%;font-family:sans-serif;text-indent:0;text-align:start;text-decoration:none;text-decoration-line:none;text-decoration-style:solid;text-decoration-color:#000000;letter-spacing:0px;word-spacing:0px;text-transform:none;direction:ltr;block-progression:tb;writing-mode:lr-tb;baseline-shift:baseline;text-anchor:start;white-space:normal;clip-rule:nonzero;display:inline;overflow:visible;visibility:visible;opacity:1;isolation:auto;mix-blend-mode:normal;color-interpolation:sRGB;color-interpolation-filters:linearRGB;solid-color:#000000;solid-opacity:1;fill:#fef443;fill-opacity:1;fill-rule:evenodd;stroke:#383838;stroke-width:5.00000048;stroke-linecap:round;stroke-linejoin:miter;stroke-miterlimit:4;stroke-dasharray:none;stroke-dashoffset:0;stroke-opacity:1;color-rendering:auto;image-rendering:auto;shape-rendering:auto;text-rendering:auto;enable-background:accumulate"
       d="m 211.0146,403.1243 a 8.0844609,8.0844609 0 0 0 -4.99024,1.82813 l -17.87305,14.21484 a 8.0844609,8.0844609 0 1 0 10.06446,12.65235 l 17.87109,-14.21289 A 8.0844609,8.0844609 0 0 0 211.0146,403.1243 Z"
       id="path4209-8"
       inkscape:connector-curvature="0" />
    <path
       style="color:#000000;font-style:normal;font-variant:normal;font-weight:normal;font-stretch:normal;font-size:109.89151001px;line-height:125%;font-family:sans-serif;text-indent:0;text-align:start;text-decoration:none;text-decoration-line:none;text-decoration-style:solid;text-decoration-color:#000000;letter-spacing:0px;word-spacing:0px;text-transform:none;direction:ltr;block-progression:tb;writing-mode:lr-tb;baseline-shift:baseline;text-anchor:start;white-space:normal;clip-rule:nonzero;display:inline;overflow:visible;visibility:visible;opacity:1;isolation:auto;mix-blend-mode:normal;color-interpolation:sRGB;color-interpolation-filters:linearRGB;solid-color:#000000;solid-opacity:1;fill:#fef443;fill-opacity:1;fill-rule:evenodd;stroke:#383838;stroke-width:5.00000048;stroke-linecap:round;stroke-linejoin:miter;stroke-miterlimit:4;stroke-dasharray:none;stroke-dashoffset:0;stroke-opacity:1;color-rendering:auto;image-rendering:auto;shape-rendering:auto;text-rendering:auto;enable-background:accumulate"
       d="m 191.28022,464.25517 a 8.0844609,8.0844609 0 0 0 -4.38476,14.6211 l 18.29882,13.66211 a 8.0844609,8.0844609 0 1 0 9.67188,-12.95703 l -18.29883,-13.66016 a 8.0844609,8.0844609 0 0 0 -5.28711,-1.66602 z"
       id="path4209-1-8"
       inkscape:connector-curvature="0" />
    <path
       style="color:#000000;font-style:normal;font-variant:normal;font-weight:normal;font-stretch:normal;font-size:109.89151001px;line-height:125%;font-family:sans-serif;text-indent:0;text-align:start;text-decoration:none;text-decoration-line:none;text-decoration-style:solid;text-decoration-color:#000000;letter-spacing:0px;word-spacing:0px;text-transform:none;direction:ltr;block-progression:tb;writing-mode:lr-tb;baseline-shift:baseline;text-anchor:start;white-space:normal;clip-rule:nonzero;display:inline;overflow:visible;visibility:visible;opacity:1;isolation:auto;mix-blend-mode:normal;color-interpolation:sRGB;color-interpolation-filters:linearRGB;solid-color:#000000;solid-opacity:1;fill:#fef443;fill-opacity:1;fill-rule:evenodd;stroke:#383838;stroke-width:5.00000048;stroke-linecap:round;stroke-linejoin:miter;stroke-miterlimit:4;stroke-dasharray:none;stroke-dashoffset:0;stroke-opacity:1;color-rendering:auto;image-rendering:auto;shape-rendering:auto;text-rendering:auto;enable-background:accumulate"
       d="m 215.96381,441.23173 -22.83593,0.18554 a 8.0844609,8.0844609 0 1 0 0.13281,16.16798 l 22.83398,-0.1875 a 8.0844609,8.0844609 0 1 0 -0.13086,-16.16602 z"
       id="path4209-1-0-6"
       inkscape:connector-curvature="0" />
    <g
       style="font-style:normal;font-weight:normal;font-size:medium;line-height:125%;font-family:sans-serif;letter-spacing:0px;word-spacing:0px;display:inline;fill:#5a7731;fill-opacity:1;stroke:#5a7731;stroke-width:1px;stroke-linecap:butt;stroke-linejoin:miter;stroke-opacity:1"
       transform="matrix(0.96720745,0.25398745,-0.25398743,0.9672074,-119.06452,-65.868204)"
       id="g4199">
      <g
         transform="translate(75.501981,-3.6986568)"
         id="g4248"
         style="fill:#5a7731;fill-opacity:1;stroke:#3d3d3d;stroke-opacity:1">
        <path
           transform="matrix(0.96720757,-0.2539875,0.25398748,0.96720762,-103.6271,90.583412)"
           d="m 433.51276,416.05561 q 11.67061,0 19.78638,5.90237 4.29263,3.15241 5.96945,7.24383 1.74388,4.02435 1.74388,11.13403 l -0.13415,9.99379 q 0,10.39624 1.4756,13.48157 0.7378,1.47559 1.40852,1.87803 0.67072,0.40243 2.81704,0.73779 2.14632,0.33537 2.14632,2.81705 0,3.21948 -2.61582,6.70724 -2.54876,3.48777 -6.64018,5.83531 -5.03043,2.95119 -10.53037,2.95119 -7.04261,0 -11.13403,-4.82922 -1.40852,-1.74389 -2.61583,-1.74389 -1.34145,0 -3.55484,1.67682 -6.70724,4.89629 -15.22545,4.89629 -8.78649,0 -14.21936,-3.75606 -3.55484,-2.48168 -5.63408,-6.43896 -2.07925,-4.02435 -2.07925,-8.38406 0,-6.97553 5.63409,-12.34133 8.78649,-8.45113 26.2924,-8.5182 3.8902,0 4.89629,-0.7378 1.00609,-0.80487 1.00609,-3.62191 0,-7.10968 -1.4756,-10.26209 -1.47559,-3.21947 -4.82921,-3.21947 -2.01218,0 -3.62192,1.2073 -1.54266,1.2073 -3.8902,4.42678 -5.96945,8.5182 -12.47548,8.5182 -3.28655,0 -5.36579,-1.9451 -2.07925,-1.9451 -2.07925,-5.0975 0,-3.21948 2.54875,-6.43896 2.61583,-3.21948 7.04261,-5.63409 12.14012,-6.43895 25.35339,-6.43895 z m -4.49385,38.83495 q -2.95119,0 -5.16458,2.41461 -2.14632,2.41461 -2.14632,5.76823 0,3.21948 1.54267,5.23165 1.54266,1.9451 4.09142,1.9451 5.36579,0 5.36579,-9.05478 0,-3.68898 -0.80487,-4.96336 -0.73779,-1.27438 -2.88411,-1.34145 z"
           style="font-style:normal;font-variant:normal;font-weight:normal;font-stretch:normal;font-size:137.36439514px;line-height:125%;font-family:'Cooper Black';-inkscape-font-specification:'Cooper Black, ';letter-spacing:0px;word-spacing:0px;fill:#3d3d3d;fill-opacity:1;stroke:#3d3d3d;stroke-width:1px;stroke-linecap:butt;stroke-linejoin:miter;stroke-opacity:1"
           id="path4147"
           inkscape:connector-curvature="0" />
        <path
           transform="matrix(0.96720757,-0.2539875,0.25398748,0.96720762,-103.6271,90.583412)"
           d="m 554.37734,440.87242 0.93902,23.6095 q 0.13414,2.6829 0.80487,3.95728 0.73779,1.27438 4.15849,4.89629 1.00608,1.07316 1.00608,3.01826 0,4.42678 -5.29872,6.17066 -5.29872,1.74389 -18.91443,1.74389 -9.256,0 -13.07913,-1.60974 -3.95728,-1.67681 -3.95728,-5.43287 0,-1.34145 0.40244,-1.9451 0.40243,-0.67073 2.6829,-3.15241 2.68289,-2.81704 2.68289,-18.78028 0,-9.256 -2.14631,-13.68279 -1.74389,-3.55484 -6.43896,-3.55484 -4.49386,0 -6.17067,2.88412 -1.67681,2.88411 -1.67681,10.4633 l 0,13.28035 q 0,3.95727 0.46951,5.43287 0.53658,1.47559 3.35362,5.70116 0.7378,1.2073 0.7378,2.74997 0,3.95727 -5.49994,5.8353 -5.49994,1.87803 -17.17055,1.87803 -18.64615,0 -18.64615,-7.71333 0,-1.60974 0.53658,-2.41461 0.60366,-0.87194 2.74998,-2.41461 1.74388,-1.27438 2.21339,-2.88411 0.4695,-1.67682 0.87194,-8.11577 0.46951,-7.64626 0.46951,-16.03032 0,-4.628 -0.7378,-6.03652 -0.67073,-1.47559 -4.02435,-3.55484 -2.88411,-1.81096 -2.88411,-4.42678 0,-2.6829 2.34753,-4.35971 2.34754,-1.74389 9.65844,-4.35971 6.43895,-2.28047 12.4084,-3.82313 5.96945,-1.60974 8.18284,-1.60974 2.01217,0 3.35362,1.47559 1.40852,1.4756 1.40852,3.48777 0,0.20122 -0.0671,1.67681 -0.0671,0.53658 -0.0671,0.93902 0,3.21947 2.6829,3.21947 1.60974,0 3.42069,-2.54875 5.76823,-8.31698 16.76812,-8.31698 8.45113,0 14.48765,4.42678 4.22556,3.1524 5.90238,7.44504 1.67681,4.22557 2.07924,12.47548 z"
           style="font-style:normal;font-variant:normal;font-weight:normal;font-stretch:normal;font-size:137.36439514px;line-height:125%;font-family:'Cooper Black';-inkscape-font-specification:'Cooper Black, ';letter-spacing:0px;word-spacing:0px;fill:#3d3d3d;fill-opacity:1;stroke:#3d3d3d;stroke-width:1px;stroke-linecap:butt;stroke-linejoin:miter;stroke-opacity:1"
           id="path4149"
           inkscape:connector-curvature="0" />
        <path
           transform="matrix(0.96720757,-0.2539875,0.25398748,0.96720762,-103.6271,90.583412)"
           d="m 643.71784,396.73874 0,61.23715 q 0,5.23166 0.40244,6.70725 0.4695,1.47559 2.48168,2.88412 2.4146,1.67681 3.21947,2.95118 0.87195,1.27438 0.87195,3.08534 0,5.36579 -10.79867,8.18284 -9.72551,2.48168 -19.45101,2.48168 -2.14632,0 -2.81705,-0.67073 -0.60365,-0.60365 -0.80487,-3.01826 -0.33536,-3.42069 -2.4146,-3.42069 -1.14024,0 -3.55484,2.01217 -6.84139,5.56702 -15.22545,5.56702 -10.39623,0 -18.71322,-7.71334 -4.89629,-4.628 -7.91455,-10.66452 -4.02435,-7.84748 -4.02435,-15.89617 0,-9.45722 5.23166,-18.24371 4.82921,-8.11577 13.1462,-12.47548 6.97553,-3.62191 13.74985,-3.62191 7.78041,0 13.95107,3.48777 1.00609,0.53658 1.60974,0.53658 2.14632,0 2.14632,-5.76823 0,-2.48168 -1.2073,-3.75606 -1.14024,-1.34145 -4.1585,-2.28046 -4.22556,-1.34145 -4.22556,-4.69508 0,-4.89629 9.72551,-7.64626 17.17055,-4.76214 23.00585,-4.76214 5.76823,0 5.76823,5.49994 z m -36.42034,33.73745 q -4.35971,0 -6.90847,4.628 -3.42069,6.17066 -3.42069,16.23153 0,9.12186 3.28655,13.74986 2.34753,3.35362 6.37188,3.35362 4.35971,0 6.30481,-5.03044 2.01218,-5.0975 2.01218,-16.36568 0,-10.32915 -2.34754,-13.74985 -1.81096,-2.6829 -5.29872,-2.81704 z"
           style="font-style:normal;font-variant:normal;font-weight:normal;font-stretch:normal;font-size:137.36439514px;line-height:125%;font-family:'Cooper Black';-inkscape-font-specification:'Cooper Black, ';letter-spacing:0px;word-spacing:0px;fill:#3d3d3d;fill-opacity:1;stroke:#3d3d3d;stroke-width:1px;stroke-linecap:butt;stroke-linejoin:miter;stroke-opacity:1"
           id="path4151"
           inkscape:connector-curvature="0" />
        <path
           transform="matrix(0.96720757,-0.2539875,0.25398748,0.96720762,-103.6271,90.583412)"
           d="m 696.1685,416.05561 q 12.27426,0 21.53026,6.37188 6.64018,4.56093 10.66452,11.87183 4.1585,7.64626 4.1585,15.96324 0,14.55473 -13.34742,24.74974 -12.74377,9.72551 -29.17652,9.72551 -16.03032,0 -25.95704,-9.12186 -9.65844,-8.85356 -9.65844,-23.07292 0,-15.8291 11.80475,-25.88997 12.34134,-10.59745 29.98139,-10.59745 z m -5.36579,15.49374 q -2.95119,0 -4.76215,2.21339 -1.74388,2.14632 -1.74388,5.76823 0,4.02435 1.47559,10.99988 1.54267,6.90847 3.62192,12.27426 2.07924,5.49994 6.77431,5.49994 5.96945,0 5.96945,-7.57918 0,-5.63409 -1.54266,-12.81084 -1.4756,-7.17676 -3.62192,-11.67061 -2.21339,-4.56093 -6.17066,-4.69507 z"
           style="font-style:normal;font-variant:normal;font-weight:normal;font-stretch:normal;font-size:137.36439514px;line-height:125%;font-family:'Cooper Black';-inkscape-font-specification:'Cooper Black, ';letter-spacing:0px;word-spacing:0px;fill:#3d3d3d;fill-opacity:1;stroke:#3d3d3d;stroke-width:1px;stroke-linecap:butt;stroke-linejoin:miter;stroke-opacity:1"
           id="path4153"
           inkscape:connector-curvature="0" />
        <path
           transform="matrix(0.96720757,-0.2539875,0.25398748,0.96720762,-103.6271,90.583412)"
           d="m 778.80177,416.05561 q 12.27426,0 21.53026,6.37188 6.64018,4.56093 10.66452,11.87183 4.1585,7.64626 4.1585,15.96324 0,14.55473 -13.34742,24.74974 -12.74377,9.72551 -29.17652,9.72551 -16.03032,0 -25.95704,-9.12186 -9.65844,-8.85356 -9.65844,-23.07292 0,-15.8291 11.80475,-25.88997 12.34134,-10.59745 29.98139,-10.59745 z m -5.36579,15.49374 q -2.95119,0 -4.76215,2.21339 -1.74388,2.14632 -1.74388,5.76823 0,4.02435 1.47559,10.99988 1.54267,6.90847 3.62192,12.27426 2.07924,5.49994 6.77431,5.49994 5.96945,0 5.96945,-7.57918 0,-5.63409 -1.54266,-12.81084 -1.4756,-7.17676 -3.62192,-11.67061 -2.21339,-4.56093 -6.17066,-4.69507 z"
           style="font-style:normal;font-variant:normal;font-weight:normal;font-stretch:normal;font-size:137.36439514px;line-height:125%;font-family:'Cooper Black';-inkscape-font-specification:'Cooper Black, ';letter-spacing:0px;word-spacing:0px;fill:#3d3d3d;fill-opacity:1;stroke:#3d3d3d;stroke-width:1px;stroke-linecap:butt;stroke-linejoin:miter;stroke-opacity:1"
           id="path4155"
           inkscape:connector-curvature="0" />
        <path
           transform="matrix(0.96720757,-0.2539875,0.25398748,0.96720762,-103.6271,90.583412)"
           d="m 851.24006,416.52512 q 3.55484,0 4.29264,1.00608 0.80487,1.00609 1.40852,6.43896 0.33536,2.95119 2.07925,2.95119 1.34145,0 2.54875,-1.9451 5.3658,-8.38406 14.01814,-8.38406 6.1036,0 9.9938,3.95727 1.87803,1.9451 3.08533,5.03044 1.20731,3.01826 1.20731,5.8353 0,3.15241 -1.4756,6.50603 -1.47559,3.28655 -3.82313,5.43287 -4.29263,4.09142 -10.53037,4.09142 -3.4207,0 -5.76823,-1.20731 -2.28047,-1.2073 -6.03653,-4.89628 -1.40852,-1.40853 -2.61582,-1.40853 -1.87803,0 -2.48168,2.14632 -0.53658,2.07925 -0.53658,8.85357 0,10.12794 0.73779,13.81692 0.46951,2.01218 1.27438,2.81705 0.87194,0.73779 3.62191,1.54266 6.03653,1.81096 6.03653,6.30481 0,2.74997 -1.94511,4.82922 -1.9451,2.01217 -5.16458,2.6829 -6.43895,1.34145 -18.91443,1.34145 -11.87182,0 -18.04249,-2.07925 -5.49994,-1.87803 -5.49994,-6.50603 0,-3.48776 4.02435,-6.23773 1.9451,-1.27438 2.68289,-2.28047 0.7378,-1.07316 1.00609,-2.88411 1.07316,-6.1036 1.07316,-22.60342 0,-3.01826 -0.67072,-4.29264 -0.67073,-1.34145 -2.6829,-2.14632 -4.76215,-1.87803 -4.76215,-5.43287 0,-3.21948 3.28655,-5.49994 3.28655,-2.34754 10.99989,-4.628 10.32916,-3.08533 17.57298,-3.1524 z"
           style="font-style:normal;font-variant:normal;font-weight:normal;font-stretch:normal;font-size:137.36439514px;line-height:125%;font-family:'Cooper Black';-inkscape-font-specification:'Cooper Black, ';letter-spacing:0px;word-spacing:0px;fill:#3d3d3d;fill-opacity:1;stroke:#3d3d3d;stroke-width:1px;stroke-linecap:butt;stroke-linejoin:miter;stroke-opacity:1"
           id="path4157"
           inkscape:connector-curvature="0" />
      </g>
      <text
         transform="matrix(0.96720748,-0.25398748,0.25398746,0.96720753,0,0)"
         sodipodi:linespacing="125%"
         id="text4264"
         y="629.45496"
         x="149.04085"
         style="font-style:normal;font-weight:normal;font-size:40px;line-height:125%;font-family:sans-serif;letter-spacing:0px;word-spacing:0px;fill:#3d3d3d;fill-opacity:1;stroke:#3d3d3d;stroke-width:1px;stroke-linecap:butt;stroke-linejoin:miter;stroke-opacity:1"
         xml:space="preserve"><tspan
           y="629.45496"
           x="149.04085"
           id="tspan4266"
           sodipodi:role="line">The space for candid conversations</tspan></text>
    </g>
  </g>
</svg>
