<?xml version="1.0" encoding="UTF-8" standalone="no"?>
<!-- Created with Inkscape (http://www.inkscape.org/) -->

<svg
   xmlns:dc="http://purl.org/dc/elements/1.1/"
   xmlns:cc="http://creativecommons.org/ns#"
   xmlns:rdf="http://www.w3.org/1999/02/22-rdf-syntax-ns#"
   xmlns:svg="http://www.w3.org/2000/svg"
   xmlns="http://www.w3.org/2000/svg"
   xmlns:sodipodi="http://sodipodi.sourceforge.net/DTD/sodipodi-0.dtd"
   xmlns:inkscape="http://www.inkscape.org/namespaces/inkscape"
   width="55.246975mm"
   height="40.454502mm"
   viewBox="0 0 195.757 143.34273"
   id="svg2"
   version="1.1"
   inkscape:version="0.91 r13725"
   sodipodi:docname="Candoor_logo_White_01.svg">
  <defs
     id="defs4" />
  <sodipodi:namedview
     id="base"
     pagecolor="#ffffff"
     bordercolor="#666666"
     borderopacity="1.0"
     inkscape:pageopacity="0.0"
     inkscape:pageshadow="2"
     inkscape:zoom="2.8"
     inkscape:cx="55.052885"
     inkscape:cy="40.13334"
     inkscape:document-units="px"
     inkscape:current-layer="layer1"
     showgrid="false"
     inkscape:window-width="1280"
     inkscape:window-height="657"
     inkscape:window-x="-8"
     inkscape:window-y="-8"
     inkscape:window-maximized="1"
     fit-margin-top="0"
     fit-margin-left="0"
     fit-margin-right="0"
     fit-margin-bottom="0" />
  <metadata
     id="metadata7">
    <rdf:RDF>
      <cc:Work
         rdf:about="">
        <dc:format>image/svg+xml</dc:format>
        <dc:type
           rdf:resource="http://purl.org/dc/dcmitype/StillImage" />
        <dc:title></dc:title>
      </cc:Work>
    </rdf:RDF>
  </metadata>
  <g
     inkscape:label="Layer 1"
     inkscape:groupmode="layer"
     id="layer1"
     transform="translate(-30.995176,-355.44798)">
    <path
       sodipodi:nodetypes="cc"
       inkscape:connector-curvature="0"
       id="path4167-6"
       d="m 90.669779,418.65878 c -62.74168,74.55438 -87.4728704,-26.06131 0,0 z"
       style="font-style:normal;font-weight:normal;font-size:medium;line-height:125%;font-family:sans-serif;letter-spacing:0px;word-spacing:0px;display:inline;fill:#d98925;fill-opacity:1;fill-rule:evenodd;stroke:#d98925;stroke-width:5.94956589;stroke-linecap:butt;stroke-linejoin:miter;stroke-miterlimit:4;stroke-dasharray:none;stroke-opacity:1" />
    <path
       sodipodi:nodetypes="cc"
       inkscape:connector-curvature="0"
       id="path4167-2-1"
       d="m 94.606809,418.13289 c -97.0936104,-8.22709 -29.18549,-86.48069 0,0 z"
       style="font-style:normal;font-weight:normal;font-size:109.89151001px;line-height:125%;font-family:sans-serif;letter-spacing:0px;word-spacing:0px;display:inline;fill:#eba3d8;fill-opacity:1;fill-rule:evenodd;stroke:#eba3d8;stroke-width:5.94956589;stroke-linecap:butt;stroke-linejoin:miter;stroke-miterlimit:4;stroke-dasharray:none;stroke-opacity:1" />
    <path
       sodipodi:nodetypes="cc"
       inkscape:connector-curvature="0"
       id="path4167-3-7"
       d="m 94.962609,417.63705 c -48.0456,-84.77304 54.885481,-72.92649 0,0 z"
       style="font-style:normal;font-weight:normal;font-size:109.89151001px;line-height:125%;font-family:sans-serif;letter-spacing:0px;word-spacing:0px;display:inline;fill:#35d584;fill-opacity:1;fill-rule:evenodd;stroke:#35d584;stroke-width:5.94956589;stroke-linecap:butt;stroke-linejoin:miter;stroke-miterlimit:4;stroke-dasharray:none;stroke-opacity:1" />
    <path
       d="m 129.43943,393.16115 q 10.55468,0 20.38638,4.62676 4.62671,2.16872 6.43401,2.16872 1.30125,0 4.19293,-0.65065 0.9398,-0.21694 2.09647,-0.21694 3.75918,0 6.57858,3.47003 6.94003,8.38593 6.94003,20.82016 0,8.74727 -6.00024,12.79575 -3.25314,2.16872 -7.3015,2.16872 -3.68688,0 -6.00023,-1.59044 -2.31334,-1.59044 -4.4821,-5.63875 -3.10857,-5.71112 -5.06046,-8.16899 -1.95188,-2.53023 -4.77127,-4.55439 -7.01234,-4.9159 -14.67531,-4.9159 -7.44609,0 -11.85591,5.42198 -4.33751,5.34961 -4.33751,14.38602 0,12.43424 6.2894,22.77196 8.53046,13.80791 24.43475,13.80791 5.85566,0 11.56672,-1.95195 5.78337,-1.95179 8.96421,-5.06047 2.7471,-2.60244 4.48212,-2.60244 2.53022,0 4.33751,2.38566 1.80732,2.3133 1.80732,5.63876 0,4.19288 -2.53023,9.39792 -2.53022,5.20504 -6.07254,8.16898 -1.51814,1.22894 -6.2894,2.16873 -2.74709,0.50608 -7.3015,2.67481 -10.69922,5.13283 -22.26599,5.13283 -12.07276,0 -24.07324,-5.42198 -13.952371,-6.2894 -22.049081,-19.30192 -7.95213,-12.65117 -7.95213,-26.45892 0,-16.04884 9.97631,-29.27829 8.67505,-11.49445 22.627411,-17.56691 10.62693,-4.62676 21.90449,-4.62676 z"
       style="font-style:normal;font-variant:normal;font-weight:normal;font-stretch:normal;font-size:137.36439514px;line-height:125%;font-family:'Cooper Black';-inkscape-font-specification:'Cooper Black, ';letter-spacing:0px;word-spacing:0px;display:inline;fill:#72f1ec;fill-opacity:1;stroke:#383838;stroke-width:2.05;stroke-linecap:butt;stroke-linejoin:miter;stroke-miterlimit:4;stroke-dasharray:none;stroke-opacity:1"
       id="path4145-1"
       inkscape:connector-curvature="0" />
    <path
       style="color:#000000;font-style:normal;font-variant:normal;font-weight:normal;font-stretch:normal;font-size:medium;line-height:125%;font-family:sans-serif;text-indent:0;text-align:start;text-decoration:none;text-decoration-line:none;text-decoration-style:solid;text-decoration-color:#000000;letter-spacing:0px;word-spacing:0px;text-transform:none;direction:ltr;block-progression:tb;writing-mode:lr-tb;baseline-shift:baseline;text-anchor:start;white-space:normal;clip-rule:nonzero;display:inline;overflow:visible;visibility:visible;opacity:1;isolation:auto;mix-blend-mode:normal;color-interpolation:sRGB;color-interpolation-filters:linearRGB;solid-color:#000000;solid-opacity:1;fill:#fef443;fill-opacity:1;fill-rule:evenodd;stroke:#fef443;stroke-width:5.00000048;stroke-linecap:round;stroke-linejoin:miter;stroke-miterlimit:4;stroke-dasharray:none;stroke-dashoffset:0;stroke-opacity:1;color-rendering:auto;image-rendering:auto;shape-rendering:auto;text-rendering:auto;enable-background:accumulate"
       d="m 211.0146,403.1243 a 8.0844609,8.0844609 0 0 0 -4.99024,1.82813 l -17.87305,14.21484 a 8.0844609,8.0844609 0 1 0 10.06446,12.65235 l 17.87109,-14.21289 A 8.0844609,8.0844609 0 0 0 211.0146,403.1243 Z"
       id="path4209-8"
       inkscape:connector-curvature="0" />
    <path
       style="color:#000000;font-style:normal;font-variant:normal;font-weight:normal;font-stretch:normal;font-size:109.89151001px;line-height:125%;font-family:sans-serif;text-indent:0;text-align:start;text-decoration:none;text-decoration-line:none;text-decoration-style:solid;text-decoration-color:#000000;letter-spacing:0px;word-spacing:0px;text-transform:none;direction:ltr;block-progression:tb;writing-mode:lr-tb;baseline-shift:baseline;text-anchor:start;white-space:normal;clip-rule:nonzero;display:inline;overflow:visible;visibility:visible;opacity:1;isolation:auto;mix-blend-mode:normal;color-interpolation:sRGB;color-interpolation-filters:linearRGB;solid-color:#000000;solid-opacity:1;fill:#fef443;fill-opacity:1;fill-rule:evenodd;stroke:#fef443;stroke-width:5.00000048;stroke-linecap:round;stroke-linejoin:miter;stroke-miterlimit:4;stroke-dasharray:none;stroke-dashoffset:0;stroke-opacity:1;color-rendering:auto;image-rendering:auto;shape-rendering:auto;text-rendering:auto;enable-background:accumulate"
       d="m 191.28022,464.25517 a 8.0844609,8.0844609 0 0 0 -4.38476,14.6211 l 18.29882,13.66211 a 8.0844609,8.0844609 0 1 0 9.67188,-12.95703 l -18.29883,-13.66016 a 8.0844609,8.0844609 0 0 0 -5.28711,-1.66602 z"
       id="path4209-1-8"
       inkscape:connector-curvature="0" />
    <path
       style="color:#000000;font-style:normal;font-variant:normal;font-weight:normal;font-stretch:normal;font-size:109.89151001px;line-height:125%;font-family:sans-serif;text-indent:0;text-align:start;text-decoration:none;text-decoration-line:none;text-decoration-style:solid;text-decoration-color:#000000;letter-spacing:0px;word-spacing:0px;text-transform:none;direction:ltr;block-progression:tb;writing-mode:lr-tb;baseline-shift:baseline;text-anchor:start;white-space:normal;clip-rule:nonzero;display:inline;overflow:visible;visibility:visible;opacity:1;isolation:auto;mix-blend-mode:normal;color-interpolation:sRGB;color-interpolation-filters:linearRGB;solid-color:#000000;solid-opacity:1;fill:#fef443;fill-opacity:1;fill-rule:evenodd;stroke:#fef443;stroke-width:5.00000048;stroke-linecap:round;stroke-linejoin:miter;stroke-miterlimit:4;stroke-dasharray:none;stroke-dashoffset:0;stroke-opacity:1;color-rendering:auto;image-rendering:auto;shape-rendering:auto;text-rendering:auto;enable-background:accumulate"
       d="m 215.96381,441.23173 -22.83593,0.18554 a 8.0844609,8.0844609 0 1 0 0.13281,16.16798 l 22.83398,-0.1875 a 8.0844609,8.0844609 0 1 0 -0.13086,-16.16602 z"
       id="path4209-1-0-6"
       inkscape:connector-curvature="0" />
  </g>
</svg>
